<?xml version="1.0" encoding="utf-8"?>
<!-- Generator: Adobe Illustrator 18.1.1, SVG Export Plug-In . SVG Version: 6.00 Build 0)  -->
<!DOCTYPE svg PUBLIC "-//W3C//DTD SVG 1.1//EN" "http://www.w3.org/Graphics/SVG/1.1/DTD/svg11.dtd">
<svg version="1.1"
	 id="Layer_1" xmlns:svg="http://www.w3.org/2000/svg" xmlns:rdf="http://www.w3.org/1999/02/22-rdf-syntax-ns#" xmlns:sodipodi="http://sodipodi.sourceforge.net/DTD/sodipodi-0.dtd" xmlns:cc="http://creativecommons.org/ns#" xmlns:inkscape="http://www.inkscape.org/namespaces/inkscape" xmlns:dc="http://purl.org/dc/elements/1.1/"
	 xmlns="http://www.w3.org/2000/svg" xmlns:xlink="http://www.w3.org/1999/xlink" x="0px" y="0px" viewBox="177 4.5 488.6 204.9"
	 enable-background="new 177 4.5 488.6 204.9" xml:space="preserve">
<g id="g9352" transform="matrix(0.9522169,0,0,0.9522169,8187.6203,-9666.8668)">
	<path id="path236-4" fill="#252D36" d="M-7919.2,10210.6C-7919.2,10210.6-7919.2,10210.6-7919.2,10210.6c-2.4,4.6-4.8,9.4-6.7,14.6
		c-3.9,10.5-5.5,22.9-7.4,35.5c-0.9,6.2-1.9,12.5-2.8,18.6c-3.4,24.9-4.5,54.2-2.3,81.2c-4,1-8,1.9-12.2,2.8
		c-0.3-30.2,3-58.2,7.3-84.6c2.1-13,4.9-25.8,8.4-37.6c1.7-5.8,3.5-11.6,6-17C-7926.5,10218.8-7923.6,10213.5-7919.2,10210.6
		L-7919.2,10210.6z"/>
	<path id="path238-2-4" fill="#A55656" d="M-7946.6,10156.7C-7946.5,10156.7-7946.5,10156.7-7946.6,10156.7c-5.2,9.4-9.2,20-12,31.7
		c-2.8,11.7-4.7,24.4-6.6,37.1c-3.7,25-6.1,53.8-3.8,81.9c-3,0.6-6,1.3-9,2c-0.1-15.2,0.5-29.9,2-44c2.8-27.8,6.8-54.3,13.7-78.2
		c2.5-8.7,5.5-17.5,10-24.5C-7950.7,10160.3-7948.8,10158-7946.6,10156.7L-7946.6,10156.7z"/>
	<path id="path240-3-6" fill="#252D36" d="M-7917.7,10312.8c-1.8,0.2-3.9,0.5-5.5,0.6c-0.5-15.9,0.9-31.5,3-46.3
		c1.5-10.7,3.3-21.3,6.4-30.8c1-3.2,2.4-6.5,4.4-8.4c0.1,0,0.1,0,0.1,0.1c-3.7,12-5.8,25.6-7.5,40
		C-7918.4,10281.9-7919.3,10298.1-7917.7,10312.8L-7917.7,10312.8z"/>
	<path id="path242-3-0" fill="#252D36" d="M-8032,10236.7c2.5,1.5,3.9,4.3,5.1,7c3.8,8.3,6.2,18.1,8.2,28c2.8,13.3,5,27.6,4.9,43.3
		c-2-0.1-4.3,0.1-6.2-0.1c1.4-14.7-0.3-29.2-2.5-42.1c-2.2-13-5.1-25.3-9.5-36C-8032,10236.8-8032,10236.8-8032,10236.7
		L-8032,10236.7z"/>
	<path id="path244-4-66" fill="#A55656" d="M-7942.7,10234.5C-7942.9,10234.4-7942.9,10234.6-7942.7,10234.5
		c14.4,4.3,22.5,15.5,27.6,29c5.1,13.7,7.6,30.3,7.7,48.7c2.6,0,5.2,0,7.9,0c-0.8-18.6-3.9-35.9-10.1-50c-1.5-3.3-3.3-6.7-5.2-9.8
		c-5.7-9.4-13.3-16.9-27.3-17.8C-7942.3,10234.6-7942.4,10234.5-7942.7,10234.5L-7942.7,10234.5z"/>
	<path id="path246-1-1" fill="#252D36" d="M-8011.6,10199C-8011.6,10198.9-8011.5,10198.9-8011.6,10199c4.2,2.4,6.7,6.9,8.7,11.4
		c2,4.6,3.8,9.7,5.2,14.8c1.1-3.5,2.3-7.3,3.6-10.8c1.3-3.4,2.8-6.8,5.5-8.7c-2.2,7.6-4.7,15-6.4,23.4c-0.2,1.1-0.7,2.5-0.7,3.5
		c0,0.6,0.4,1.6,0.6,2.4c2.8,11.8,5.1,24.3,6.5,37.4c1.5,14.2,2.7,29.2,1.3,44.4c-3.8-0.2-7.4-0.4-11.1-0.7
		c3.9-19.6,2.8-45.5-0.3-65.2c-3.3,19.4-5.5,42.4-3.8,65.1c-2.4,0-4.9,0-7.3,0c0.1-26.8,3.4-50.8,8-73.5c0.3-1.3,0.9-3.1,0.9-4.4
		c0-0.8-0.3-1.8-0.4-2.7c-1.1-6-2.4-12.4-3.9-17.8C-8007.1,10211.1-8009.5,10205.1-8011.6,10199z"/>
	<path id="path248-1-84" fill="#252D36" d="M-7957.6,10236.8C-7957.6,10236.7-7957.6,10236.8-7957.6,10236.8
		c2.4,1.3,3.9,4.2,5.1,6.8c1.1,2.3,2,4.8,2.8,7.1c0.5-0.2,0.7-0.8,1-1.2c5-6.7,11.9-11.8,22.6-13c2.1-8.4,4.2-17.4,7.6-24.8
		c1.1-2.4,2.4-4.8,4.4-6.1c-2.3,7.9-5,16-6.7,24.7c-1.7,8.7-3.2,17.7-4.5,26.9c-2.7,18.1-4.3,38.5-2.7,58.7c-2.5,0-4.9,0-7.4,0
		c0.1-29.2,4.1-54.5,9.2-78.8c-10.4,3.4-16.8,11.5-21.3,21.2c4.4,17.1,8,35.2,8.1,56.6c-2.1,0-4.2,0-6.3,0c1.6-18.1-1-35.8-4.1-50.7
		c-4.8,13.9-6.3,31.1-6.3,49.8c-3.7,0-7.5,0-11.2,0c1.1-24,5.7-44.5,15.4-59.9C-7953.4,10248-7955.6,10242.4-7957.6,10236.8
		L-7957.6,10236.8z"/>
	<path id="path236-3" fill="#252D36" d="M-8052.9,10215.7C-8052.9,10215.7-8052.9,10215.7-8052.9,10215.7c-2.4,4.6-4.8,9.4-6.7,14.6
		c-3.9,10.5-5.5,22.9-7.4,35.5c-0.9,6.2-1.9,12.5-2.8,18.6c-3.4,24.9-4.5,54.2-2.3,81.2c-4,1-8,1.9-12.2,2.8
		c-0.3-30.2,3-58.2,7.3-84.6c2.1-13,4.9-25.8,8.4-37.6c1.7-5.8,3.5-11.6,6-17C-8060.3,10223.9-8057.3,10218.7-8052.9,10215.7
		L-8052.9,10215.7z"/>
	<path id="path238-2-1" fill="#252D36" d="M-7985.7,10216.3C-7985.6,10216.3-7985.6,10216.4-7985.7,10216.3c-5.2,9.4-9.2,20-12,31.7
		c-2.8,11.7-4.7,24.4-6.6,37.1c-3.7,25-6.1,53.8-3.8,81.9c-3,0.6-6,1.3-9,2c-0.1-15.2,0.5-29.9,2-44c2.8-27.8,6.8-54.3,13.7-78.2
		c2.5-8.7,5.5-17.5,10-24.5C-7989.8,10220-7987.9,10217.7-7985.7,10216.3L-7985.7,10216.3z"/>
	<path id="path240-3-9" fill="#A55656" d="M-8020.5,10366.3c-1.8,0.2-3.9,0.5-5.5,0.6c-0.5-15.9,0.9-31.5,3-46.3
		c1.5-10.7,3.3-21.3,6.4-30.8c1-3.2,2.4-6.5,4.4-8.4c0.1,0,0.1,0,0.1,0.1c-3.7,12-5.8,25.6-7.5,40
		C-8021.3,10335.4-8022.1,10351.6-8020.5,10366.3L-8020.5,10366.3z"/>
	<path id="path242-3-8" fill="#A55656" d="M-8134.9,10290.2c2.5,1.5,3.9,4.3,5.1,7c3.8,8.3,6.2,18.1,8.2,28
		c2.8,13.3,5,27.6,4.9,43.3c-2-0.1-4.3,0.1-6.2-0.1c1.4-14.7-0.3-29.2-2.5-42.1c-2.2-13-5.1-25.3-9.5-36
		C-8134.9,10290.3-8134.9,10290.2-8134.9,10290.2L-8134.9,10290.2z"/>
	<path id="path244-4-6" fill="#252D36" d="M-7962.4,10294.1C-7962.2,10294.1-7962.2,10294.3-7962.4,10294.1
		c-14.4,4.3-22.5,15.5-27.6,29c-5.1,13.7-7.6,30.3-7.7,48.7c-2.6,0-5.2,0-7.9,0c0.8-18.6,3.9-35.9,10.1-50c1.5-3.3,3.3-6.7,5.2-9.8
		c5.7-9.4,13.3-16.9,27.3-17.8C-7962.8,10294.2-7962.7,10294.1-7962.4,10294.1L-7962.4,10294.1z"/>
	<path id="path246-1-5" fill="#252D36" d="M-8114.4,10252.4C-8114.4,10252.4-8114.4,10252.4-8114.4,10252.4
		c4.2,2.4,6.7,6.9,8.7,11.4c2,4.6,3.8,9.7,5.2,14.8c1.1-3.5,2.3-7.3,3.6-10.8c1.3-3.4,2.8-6.8,5.5-8.7c-2.2,7.6-4.7,15-6.4,23.4
		c-0.2,1.1-0.7,2.5-0.7,3.5c0,0.6,0.4,1.6,0.6,2.4c2.8,11.8,5.1,24.3,6.5,37.4c1.5,14.2,2.7,29.2,1.3,44.4
		c-3.8-0.2-7.4-0.4-11.1-0.7c3.9-19.6,2.8-45.5-0.3-65.2c-3.3,19.4-5.5,42.4-3.8,65.1c-2.4,0-4.9,0-7.3,0c0.1-26.8,3.4-50.8,8-73.5
		c0.3-1.3,0.9-3.1,0.9-4.4c0-0.8-0.3-1.8-0.4-2.7c-1.1-6-2.4-12.4-3.9-17.8C-8109.9,10264.5-8112.3,10258.6-8114.4,10252.4
		L-8114.4,10252.4z"/>
	<path id="path248-1-0" fill="#252D36" d="M-8060.5,10290.3C-8060.5,10290.2-8060.4,10290.3-8060.5,10290.3c2.4,1.3,3.9,4.2,5.1,6.8
		c1.1,2.3,2,4.8,2.8,7.1c0.5-0.2,0.7-0.8,1-1.2c5-6.7,11.9-11.8,22.6-13c2.1-8.4,4.2-17.4,7.6-24.8c1.1-2.4,2.4-4.8,4.4-6.1
		c-2.3,7.9-5,16-6.7,24.7c-1.7,8.7-3.2,17.7-4.5,26.9c-2.7,18.1-4.3,38.5-2.7,58.7c-2.5,0-4.9,0-7.4,0c0.1-29.2,4.1-54.5,9.2-78.8
		c-10.4,3.4-16.8,11.5-21.3,21.2c4.4,17.1,8,35.2,8.1,56.6c-2.1,0-4.2,0-6.3,0c1.6-18.1-1-35.8-4.1-50.7
		c-4.8,13.9-6.3,31.1-6.3,49.8c-3.7,0-7.5,0-11.2,0c1.1-24,5.7-44.5,15.4-59.9C-8056.3,10301.5-8058.4,10295.9-8060.5,10290.3
		L-8060.5,10290.3z"/>
	<path id="path236-8" fill="#A55656" d="M-8207.2,10215.7C-8207.2,10215.7-8207.2,10215.7-8207.2,10215.7c-2.4,4.6-4.8,9.4-6.7,14.6
		c-3.9,10.5-5.5,22.9-7.4,35.5c-0.9,6.2-1.9,12.5-2.8,18.6c-3.4,24.9-4.5,54.2-2.3,81.2c-4,1-8,1.9-12.2,2.8
		c-0.3-30.2,3-58.2,7.3-84.6c2.1-13,4.9-25.8,8.4-37.6c1.7-5.8,3.5-11.6,6-17C-8214.5,10223.9-8211.5,10218.7-8207.2,10215.7
		L-8207.2,10215.7z"/>
	<path id="path238-2-6" fill="#252D36" d="M-8139.9,10216.3C-8139.9,10216.3-8139.9,10216.4-8139.9,10216.3c-5.2,9.4-9.2,20-12,31.7
		c-2.8,11.7-4.7,24.4-6.6,37.1c-3.7,25-6.1,53.8-3.8,81.9c-3,0.6-6,1.3-9,2c-0.1-15.2,0.5-29.9,2-44c2.8-27.8,6.8-54.3,13.7-78.2
		c2.5-8.7,5.5-17.5,10-24.5C-8144.1,10220-8142.2,10217.7-8139.9,10216.3L-8139.9,10216.3z"/>
	<path id="path240-3-0" fill="#252D36" d="M-8174.8,10366.3c-1.8,0.2-3.9,0.5-5.5,0.6c-0.5-15.9,0.9-31.5,3-46.3
		c1.5-10.7,3.3-21.3,6.4-30.8c1-3.2,2.4-6.5,4.4-8.4c0.1,0,0.1,0,0.1,0.1c-3.7,12-5.8,25.6-7.5,40
		C-8175.6,10335.4-8176.4,10351.6-8174.8,10366.3L-8174.8,10366.3z"/>
	<path id="path242-3-2" fill="#252D36" d="M-8289.2,10290.2c2.5,1.5,3.9,4.3,5.1,7c3.8,8.3,6.2,18.1,8.2,28
		c2.8,13.3,5,27.6,4.9,43.3c-2-0.1-4.3,0.1-6.2-0.1c1.4-14.7-0.3-29.2-2.5-42.1c-2.2-13-5.1-25.3-9.5-36
		C-8289.2,10290.3-8289.2,10290.2-8289.2,10290.2L-8289.2,10290.2z"/>
	<path id="path244-4-4" fill="#252D36" d="M-8116.7,10294.1C-8116.5,10294.1-8116.5,10294.3-8116.7,10294.1
		c-14.4,4.3-22.5,15.5-27.6,29c-5.1,13.7-7.6,30.3-7.7,48.7c-2.6,0-5.2,0-7.9,0c0.8-18.6,3.9-35.9,10.1-50c1.5-3.3,3.3-6.7,5.2-9.8
		c5.7-9.4,13.3-16.9,27.3-17.8C-8117.1,10294.2-8117,10294.1-8116.7,10294.1L-8116.7,10294.1z"/>
	<path id="path246-1-8" fill="#252D36" d="M-8268.7,10252.4C-8268.7,10252.4-8268.6,10252.4-8268.7,10252.4
		c4.2,2.4,6.7,6.9,8.7,11.4c2,4.6,3.8,9.7,5.2,14.8c1.1-3.5,2.3-7.3,3.6-10.8c1.3-3.4,2.8-6.8,5.5-8.7c-2.2,7.6-4.7,15-6.4,23.4
		c-0.2,1.1-0.7,2.5-0.7,3.5c0,0.6,0.4,1.6,0.6,2.4c2.8,11.8,5.1,24.3,6.5,37.4c1.5,14.2,2.7,29.2,1.3,44.4
		c-3.8-0.2-7.4-0.4-11.1-0.7c3.9-19.6,2.8-45.5-0.3-65.2c-3.3,19.4-5.5,42.4-3.8,65.1c-2.4,0-4.9,0-7.3,0c0.1-26.8,3.4-50.8,8-73.5
		c0.3-1.3,0.9-3.1,0.9-4.4c0-0.8-0.3-1.8-0.4-2.7c-1.1-6-2.4-12.4-3.9-17.8C-8264.2,10264.5-8266.6,10258.6-8268.7,10252.4
		L-8268.7,10252.4z"/>
	<path id="path248-1-6" fill="#252D36" d="M-8214.8,10290.3C-8214.7,10290.2-8214.7,10290.3-8214.8,10290.3c2.4,1.3,3.9,4.2,5.1,6.8
		c1.1,2.3,2,4.8,2.8,7.1c0.5-0.2,0.7-0.8,1-1.2c5-6.7,11.9-11.8,22.6-13c2.1-8.4,4.2-17.4,7.6-24.8c1.1-2.4,2.4-4.8,4.4-6.1
		c-2.3,7.9-5,16-6.7,24.7c-1.7,8.7-3.2,17.7-4.5,26.9c-2.7,18.1-4.3,38.5-2.7,58.7c-2.5,0-4.9,0-7.4,0c0.1-29.2,4.1-54.5,9.2-78.8
		c-10.4,3.4-16.8,11.5-21.3,21.2c4.4,17.1,8,35.2,8.1,56.6c-2.1,0-4.2,0-6.3,0c1.6-18.1-1-35.8-4.1-50.7
		c-4.8,13.9-6.3,31.1-6.3,49.8c-3.7,0-7.5,0-11.2,0c1.1-24,5.7-44.5,15.4-59.9C-8210.6,10301.5-8212.7,10295.9-8214.8,10290.3
		L-8214.8,10290.3z"/>
	<path id="path236-0" fill="#A55656" d="M-8330.6,10201.3C-8330.6,10201.3-8330.6,10201.3-8330.6,10201.3c-2.4,4.6-4.8,9.4-6.7,14.6
		c-3.9,10.5-5.5,22.9-7.4,35.5c-0.9,6.2-1.9,12.5-2.8,18.6c-3.4,24.9-4.5,54.2-2.3,81.2c-4,1-8,1.9-12.2,2.8
		c-0.3-30.2,3-58.2,7.3-84.6c2.1-13,4.9-25.8,8.4-37.6c1.7-5.8,3.5-11.6,6-17C-8338,10209.5-8335,10204.3-8330.6,10201.3
		L-8330.6,10201.3z"/>
	<path id="path238-2-9" fill="#252D36" d="M-8263.4,10189.6C-8263.3,10189.6-8263.3,10189.6-8263.4,10189.6c-5.2,9.4-9.2,20-12,31.7
		c-2.8,11.7-4.7,24.4-6.6,37.1c-3.7,25-6.1,53.8-3.8,81.9c-3,0.6-6,1.3-9,2c-0.1-15.2,0.5-29.9,2-44c2.8-27.8,6.8-54.3,13.7-78.2
		c2.5-8.7,5.5-17.5,10-24.5C-8267.5,10193.2-8265.6,10191-8263.4,10189.6L-8263.4,10189.6z"/>
	<path id="path240-3-00" fill="#252D36" d="M-8303.4,10360.1c-1.8,0.2-3.9,0.5-5.5,0.6c-0.5-15.9,0.9-31.5,3-46.3
		c1.5-10.7,3.3-21.3,6.4-30.8c1-3.2,2.4-6.5,4.4-8.4c0.1,0,0.1,0,0.1,0.1c-3.7,12-5.8,25.6-7.5,40
		C-8304.1,10329.2-8305,10345.4-8303.4,10360.1L-8303.4,10360.1z"/>
	<path id="path242-3-6" fill="#A55656" d="M-8367.2,10263.5c-2.5,1.5-3.9,4.3-5.1,7c-3.8,8.3-6.2,18.1-8.2,28
		c-2.8,13.3-5,27.6-4.9,43.3c2-0.1,4.3,0.1,6.2-0.1c-1.4-14.7,0.3-29.2,2.5-42.1c2.2-13,5.1-25.3,9.5-36
		C-8367.2,10263.6-8367.2,10263.5-8367.2,10263.5L-8367.2,10263.5z"/>
	<path id="path244-4-1" fill="#252D36" d="M-8240.1,10288C-8239.9,10287.9-8239.9,10288.1-8240.1,10288c-15.1,4.3-23.6,15.5-28.9,29
		c-5.4,13.7-8,30.3-8.1,48.7c-2.7,0-5.5,0-8.2,0c0.8-18.6,4.1-35.9,10.6-50c1.5-3.3,3.5-6.7,5.5-9.8c6-9.4,13.9-16.9,28.6-17.8
		C-8240.5,10288.1-8240.4,10287.9-8240.1,10288L-8240.1,10288z"/>
	<path id="path246-1-3" fill="#252D36" d="M-8387.7,10225.7C-8387.7,10225.6-8387.8,10225.7-8387.7,10225.7
		c-4.2,2.4-6.7,6.9-8.7,11.4c-2,4.6-3.8,9.7-5.2,14.8c-1.1-3.5-2.3-7.3-3.6-10.8c-1.3-3.4-2.8-6.8-5.5-8.7c2.2,7.6,4.7,15,6.4,23.4
		c0.2,1.1,0.7,2.5,0.7,3.5c0,0.6-0.4,1.6-0.6,2.4c-2.8,11.8-5.1,24.3-6.5,37.4c-1.5,14.2-2.7,29.2-1.3,44.4
		c3.8-0.2,7.4-0.4,11.1-0.7c-3.9-19.6-2.8-45.5,0.3-65.2c3.3,19.4,5.5,42.4,3.8,65.1c2.4,0,4.9,0,7.3,0c-0.1-26.8-3.4-50.8-8-73.5
		c-0.3-1.3-0.9-3.1-0.9-4.4c0-0.8,0.3-1.8,0.4-2.7c1.1-6,2.4-12.4,3.9-17.8C-8392.2,10237.8-8389.8,10231.9-8387.7,10225.7
		L-8387.7,10225.7z"/>
	<path id="path248-1-8" fill="#252D36" d="M-8333.1,10287.2C-8333,10287.1-8333,10287.2-8333.1,10287.2c2.4,1.3,3.9,4.2,5.1,6.8
		c1.1,2.3,2,4.8,2.8,7.1c0.5-0.2,0.7-0.8,1-1.2c5-6.7,11.9-11.8,22.6-13c2.1-8.4,4.2-17.4,7.6-24.8c1.1-2.4,2.4-4.8,4.4-6.1
		c-2.3,7.9-5,16-6.7,24.7c-1.7,8.7-3.2,17.7-4.5,26.9c-2.7,18.1-4.3,38.5-2.7,58.7c-2.5,0-4.9,0-7.4,0c0.1-29.2,4.1-54.5,9.2-78.8
		c-10.4,3.4-16.8,11.5-21.3,21.2c4.4,17.1,8,35.2,8.1,56.6c-2.1,0-4.2,0-6.3,0c1.6-18.1-1-35.8-4.1-50.7
		c-4.8,13.9-6.3,31.1-6.3,49.8c-3.7,0-7.5,0-11.2,0c1.1-24,5.7-44.5,15.4-59.9C-8328.8,10298.4-8331,10292.8-8333.1,10287.2
		L-8333.1,10287.2z"/>
	<path id="path9303" fill="#A55656" d="M-8073.9,10214.6C-8073.9,10214.6-8073.9,10214.6-8073.9,10214.6c-2.4,4.6-4.8,9.4-6.7,14.6
		c-3.9,10.5-5.5,22.9-7.4,35.5c-0.9,6.2-1.9,12.5-2.8,18.6c-3.4,24.9-4.5,54.2-2.3,81.2c-4,1-8,1.9-12.2,2.8
		c-0.3-30.2,3-58.2,7.3-84.6c2.1-13,4.9-25.8,8.4-37.6c1.7-5.8,3.5-11.6,6-17C-8081.3,10222.8-8078.3,10217.5-8073.9,10214.6
		L-8073.9,10214.6z"/>
	<path id="path9305" fill="#252D36" d="M-8034.3,10215.2C-8034.2,10215.2-8034.2,10215.2-8034.3,10215.2c-5.2,9.4-9.2,20-12,31.7
		c-2.8,11.7-4.7,24.4-6.6,37.1c-3.7,25-6.1,53.8-3.8,81.9c-3,0.6-6,1.3-9,2c-0.1-15.2,0.5-29.9,2-44c2.8-27.8,6.8-54.3,13.7-78.2
		c2.5-8.7,5.5-17.5,10-24.5C-8038.4,10218.8-8036.5,10216.6-8034.3,10215.2L-8034.3,10215.2z"/>
	<path id="path9307" fill="#252D36" d="M-8108.5,10363.7c-1.8,0.2-3.9,0.5-5.5,0.6c-0.5-15.9,0.9-31.5,3-46.3
		c1.5-10.7,3.3-21.3,6.4-30.8c1-3.2,2.4-6.5,4.4-8.4c0.1,0,0.1,0,0.1,0.1c-3.7,12-5.8,25.6-7.5,40
		C-8109.2,10332.8-8110.1,10349-8108.5,10363.7L-8108.5,10363.7z"/>
	<path id="path9309" fill="#252D36" d="M-8183.5,10289.1c2.5,1.5,3.9,4.3,5.1,7c3.8,8.3,6.2,18.1,8.2,28c2.8,13.3,5,27.6,4.9,43.3
		c-2-0.1-4.3,0.1-6.2-0.1c1.4-14.7-0.3-29.2-2.5-42.1c-2.2-13-5.1-25.3-9.5-36C-8183.5,10289.2-8183.5,10289.1-8183.5,10289.1
		L-8183.5,10289.1z"/>
	<path id="path9311" fill="#252D36" d="M-8011.1,10293C-8010.8,10293-8010.8,10293.2-8011.1,10293c-14.4,4.3-22.5,15.5-27.6,29
		c-5.1,13.7-7.6,30.3-7.7,48.7c-2.6,0-5.2,0-7.9,0c0.8-18.6,3.9-35.9,10.1-50c1.5-3.3,3.3-6.7,5.2-9.8c5.7-9.4,13.3-16.9,27.3-17.8
		C-8011.4,10293.1-8011.4,10293-8011.1,10293L-8011.1,10293z"/>
	<path id="path9313" fill="#252D36" d="M-8155.1,10241.9C-8155.1,10241.8-8155,10241.8-8155.1,10241.9c4.2,2.4,6.7,6.9,8.7,11.4
		c2,4.6,3.8,9.7,5.2,14.8c1.1-3.5,2.3-7.3,3.6-10.8c1.3-3.4,2.8-6.8,5.5-8.7c-2.2,7.6-4.7,15-6.4,23.4c-0.2,1.1-0.7,2.5-0.7,3.5
		c0,0.6,0.4,1.6,0.6,2.4c2.8,11.8,5.1,24.3,6.5,37.4c1.5,14.2,2.7,29.2,1.3,44.4c-3.8-0.2-7.4-0.4-11.1-0.7
		c3.9-19.6,2.8-45.5-0.3-65.2c-3.3,19.4-5.5,42.4-3.8,65.1c-2.4,0-4.9,0-7.3,0c0.1-26.8,3.4-50.8,8-73.5c0.3-1.3,0.9-3.1,0.9-4.4
		c0-0.8-0.3-1.8-0.4-2.7c-1.1-6-2.4-12.4-3.9-17.8C-8150.6,10254-8153,10248-8155.1,10241.9L-8155.1,10241.9z"/>
	<path id="path9315" fill="#252D36" d="M-7986.3,10291.5C-7986.3,10291.5-7986.2,10291.5-7986.3,10291.5c2.4,1.3,3.9,4.2,5.1,6.8
		c1.1,2.3,2,4.8,2.8,7.1c0.5-0.2,0.7-0.8,1-1.2c5-6.7,11.9-11.8,22.6-13c2.1-8.4,4.2-17.4,7.6-24.8c1.1-2.4,2.4-4.8,4.4-6.1
		c-2.3,7.9-5,16-6.7,24.7c-1.7,8.7-3.2,17.7-4.5,26.9c-2.7,18.1-4.3,38.5-2.7,58.7c-2.5,0-4.9,0-7.4,0c0.1-29.2,4.1-54.5,9.2-78.8
		c-10.4,3.4-16.8,11.5-21.3,21.2c4.4,17.1,8,35.2,8.1,56.6c-2.1,0-4.2,0-6.3,0c1.6-18.1-1-35.8-4.1-50.7
		c-4.8,13.9-6.3,31.1-6.3,49.8c-3.7,0-7.5,0-11.2,0c1.1-24,5.7-44.5,15.4-59.9C-7982.1,10302.7-7984.2,10297.2-7986.3,10291.5
		L-7986.3,10291.5z"/>
</g>
</svg>
