<?xml version="1.0" encoding="utf-8"?>
<!-- Generator: Adobe Illustrator 18.1.1, SVG Export Plug-In . SVG Version: 6.00 Build 0)  -->
<!DOCTYPE svg PUBLIC "-//W3C//DTD SVG 1.1//EN" "http://www.w3.org/Graphics/SVG/1.1/DTD/svg11.dtd">
<svg version="1.1" id="Layer_1" xmlns="http://www.w3.org/2000/svg" xmlns:xlink="http://www.w3.org/1999/xlink" x="0px" y="0px"
	 viewBox="0 0 46 46" enable-background="new 0 0 46 46" xml:space="preserve">
<rect fill="#A45657" width="46" height="46"/>
<g>
	<path fill="#252D36" d="M16.5,24.1h-5.1l0-2.2h5.1V24.1z M22.6,24.8c-0.5,1.6-2,2.7-3.8,2.7l-2.3,0c-1.1,0-2.1-0.4-2.8-1.2
		c-0.4-0.4-0.8-1-1-1.6l3.3,0c0.1,0.1,0.3,0.4,0.5,0.4h2.3c0.2,0,0.4-0.4,0.5-0.4H22.6z M12.7,21.3c0.5-1.6,2-2.8,3.8-2.8l2.3,0
		c1.1,0,2.1,0.5,2.8,1.2c0.4,0.4,0.8,1,1,1.6l-3.3,0c-0.1,0-0.3-0.4-0.5-0.4h-2.3c-0.2,0-0.3,0.4-0.5,0.4L12.7,21.3z M27.3,21.9v2.2
		l-8.8,0l0-2.2L27.3,21.9z M23.4,21.2c0.5-1.6,2-2.7,3.8-2.7h2.3c1.1,0,2.1,0.4,2.8,1.2c0.4,0.4,0.7,1,0.9,1.6l-3.3,0
		c-0.1-0.1-0.3-0.4-0.5-0.4l-2.3,0c-0.2,0-0.3,0.4-0.5,0.4L23.4,21.2z M33.3,24.8c-0.5,1.6-2,2.7-3.8,2.7h-2.3
		c-1.1,0-2.1-0.5-2.8-1.2c-0.4-0.4-0.8-1-1-1.6l3.3,0c0.1,0.1,0.3,0.4,0.5,0.4h2.3c0.2,0,0.3-0.4,0.5-0.4H33.3z M29.5,21.9h5.1
		l0,2.2h-5.1V21.9z"/>
</g>
</svg>
