<?xml version="1.0" encoding="utf-8"?>
<!-- Generator: Adobe Illustrator 18.1.1, SVG Export Plug-In . SVG Version: 6.00 Build 0)  -->
<!DOCTYPE svg PUBLIC "-//W3C//DTD SVG 1.1//EN" "http://www.w3.org/Graphics/SVG/1.1/DTD/svg11.dtd">
<svg version="1.1" id="Layer_1" xmlns="http://www.w3.org/2000/svg" xmlns:xlink="http://www.w3.org/1999/xlink" x="0px" y="0px"
	 viewBox="71.8 8.5 25 32" enable-background="new 71.8 8.5 25 32" xml:space="preserve">
<g>
	<path fill="#252D36" d="M87.5,19.7H94v17.7H74.6V11.6h11.3v6.5C85.9,19,86.6,19.7,87.5,19.7z M89.9,22.9H78.7
		c-0.5,0-0.8,0.4-0.8,0.8c0,0.5,0.4,0.8,0.8,0.8h11.3c0.5,0,0.8-0.4,0.8-0.8C90.7,23.3,90.4,22.9,89.9,22.9z M90.7,28.6
		c0-0.5-0.4-0.8-0.8-0.8H78.7c-0.5,0-0.8,0.4-0.8,0.8c0,0.5,0.4,0.8,0.8,0.8h11.3C90.4,29.4,90.7,29,90.7,28.6z M90.7,33.4
		c0-0.5-0.4-0.8-0.8-0.8H78.7c-0.5,0-0.8,0.4-0.8,0.8c0,0.5,0.4,0.8,0.8,0.8h11.3C90.4,34.2,90.7,33.8,90.7,33.4z M94,18.1h-6.5
		v-6.5L94,18.1z"/>
</g>
</svg>
