<?xml version="1.0" encoding="utf-8"?>
<!-- Generator: Adobe Illustrator 18.1.1, SVG Export Plug-In . SVG Version: 6.00 Build 0)  -->
<!DOCTYPE svg PUBLIC "-//W3C//DTD SVG 1.1//EN" "http://www.w3.org/Graphics/SVG/1.1/DTD/svg11.dtd">
<svg version="1.1" id="Layer_1" xmlns="http://www.w3.org/2000/svg" xmlns:xlink="http://www.w3.org/1999/xlink" x="0px" y="0px"
	 viewBox="69.1 9 31.9 32" enable-background="new 69.1 9 31.9 32" xml:space="preserve">
<g>
	<path fill="#252D36" d="M71.8,33.5c0-0.4,0.2-1.1,0.6-1.6l3.9-3.9c0.4-0.4,0.9-0.6,1.5-0.6c0.6,0,1.2,0.2,1.7,0.7l2.6,2.6
		c0.1-0.1,0.2-0.1,0.3-0.2c1.3-0.7,3-1.6,4.8-3.4c1.8-1.8,2.7-3.5,3.4-4.8c0.1-0.1,0.1-0.2,0.1-0.3l-2.6-2.6
		c-0.4-0.4-0.7-1.1-0.7-1.7c0-0.5,0.2-1.1,0.6-1.5l3.9-3.9c0.4-0.4,0.9-0.6,1.4-0.6c0.9,0,1.2,0.2,3,2.1c1,1,1.6,2.5,1.8,3.9
		c0.1,0.4,0.1,1,0.1,1.3c0,4-2.4,8.6-6.5,12.8C87.6,36,83,38.3,79,38.3c-0.5,0-0.9-0.1-1.3-0.1c-1.3-0.2-2.8-0.8-3.9-1.8
		C72.1,34.7,71.8,34.1,71.8,33.5z"/>
</g>
</svg>
