<?xml version="1.0" encoding="utf-8"?>
<!-- Generator: Adobe Illustrator 18.1.1, SVG Export Plug-In . SVG Version: 6.00 Build 0)  -->
<!DOCTYPE svg PUBLIC "-//W3C//DTD SVG 1.1//EN" "http://www.w3.org/Graphics/SVG/1.1/DTD/svg11.dtd">
<svg version="1.1" id="Layer_1" xmlns="http://www.w3.org/2000/svg" xmlns:xlink="http://www.w3.org/1999/xlink" x="0px" y="0px"
	 viewBox="0 0 170 50" enable-background="new 0 0 170 50" xml:space="preserve">
<g>
	<g>
		<g>
			<path fill="#A45657" d="M136.7,36.7c3.3,0,4-0.9,4-3c0-1.9-0.2-3.5-0.2-5.6c0-1.7,0.5-2.7,2.4-3v-0.1c-2-0.3-2.4-1.3-2.4-3
				c0-1.9,0.2-3.8,0.2-5.6c0-2.1-0.8-3-4-3H135v-0.9h1.5c3.6,0,5.3,0.8,5.3,3.7c0,2-0.2,4.1-0.2,6c0,1.2,0.7,2.3,4.3,2.3v0.9
				c-3.6,0-4.3,1.2-4.3,2.3c0,2,0.2,3.8,0.2,6c0,2.9-1.7,3.7-5.3,3.7H135v-0.9H136.7z"/>
		</g>
		<g>
			<path fill="#A45657" d="M28.5,27.8c0-1.2-0.7-2.3-4.3-2.3v-0.9c3.6,0,4.3-1.2,4.3-2.3c0-1.9-0.3-4-0.3-6c0-2.9,1.8-3.7,5.4-3.7
				h1.5v0.9h-1.7c-3.3,0-4,0.9-4,3c0,1.7,0.2,3.7,0.2,5.6c0,1.7-0.6,2.7-2.5,3v0.1c1.9,0.3,2.5,1.3,2.5,3c0,2.1-0.2,3.7-0.2,5.6
				c0,2.1,0.7,3,4,3h1.7v0.9h-1.5c-3.6,0-5.4-0.8-5.4-3.7C28.2,31.6,28.5,29.8,28.5,27.8z"/>
		</g>
	</g>
	<g>
		<path fill="#607189" d="M35,19h2v5.5h0.1l2.5-2.7h2.2l-2.6,2.8l2.8,4h-2.2L38,25.8l-1,1v1.7h-2V19z"/>
		<path fill="#607189" d="M45.9,21.6c1.8,0,3.4,1.3,3.4,3.5s-1.7,3.5-3.4,3.5c-1.8,0-3.4-1.3-3.4-3.5S44.1,21.6,45.9,21.6z
			 M45.9,27.1c0.9,0,1.4-0.7,1.4-1.9s-0.5-1.9-1.4-1.9c-0.9,0-1.4,0.7-1.4,1.9S45,27.1,45.9,27.1z"/>
		<path fill="#607189" d="M51.3,21.8h1.6l0.2,1.5h0c0.7-1.1,1.7-1.6,2.7-1.6c0.6,0,0.9,0.1,1.3,0.3l-0.4,1.7
			c-0.4-0.1-0.7-0.2-1.2-0.2c-0.8,0-1.7,0.4-2.3,1.6v3.5h-2V21.8z"/>
		<path fill="#607189" d="M59.4,29.6c0.8,0,1.2-0.4,1.4-0.9l0.1-0.4L58,21.8h2l1.1,2.9c0.2,0.6,0.5,1.3,0.7,2h0.1
			c0.2-0.7,0.4-1.4,0.6-2l1-2.9h1.9l-2.7,6.8c-0.7,1.7-1.5,2.6-3.2,2.6c-0.4,0-0.7-0.1-1-0.1l0.4-1.5C59,29.6,59.2,29.6,59.4,29.6z"
			/>
		<path fill="#607189" d="M76.9,21.6c0.8,0,1.3,0.3,1.7,0.7l-0.1-1V19h2v9.6h-1.6l-0.1-0.7h0c-0.5,0.5-1.2,0.9-1.9,0.9
			c-1.7,0-2.8-1.3-2.8-3.5S75.4,21.6,76.9,21.6z M77.3,27.1c0.4,0,0.8-0.2,1.2-0.6v-2.7c-0.4-0.3-0.7-0.4-1.1-0.4
			c-0.7,0-1.4,0.6-1.4,1.9C76,26.5,76.5,27.1,77.3,27.1z"/>
		<path fill="#607189" d="M85.3,21.6c1.8,0,3.4,1.3,3.4,3.5s-1.7,3.5-3.4,3.5c-1.8,0-3.4-1.3-3.4-3.5S83.5,21.6,85.3,21.6z
			 M85.3,27.1c0.9,0,1.4-0.7,1.4-1.9s-0.5-1.9-1.4-1.9c-0.9,0-1.4,0.7-1.4,1.9S84.4,27.1,85.3,27.1z"/>
		<path fill="#607189" d="M90.1,21.8h1.6l0.1,0.9h0.1c0.6-0.6,1.3-1.1,2.3-1.1c1.5,0,2.2,1,2.2,2.8v4.2h-2v-3.9c0-0.9-0.3-1.3-1-1.3
			c-0.5,0-0.9,0.2-1.4,0.7v4.5h-2V21.8z"/>
		<path fill="#607189" d="M100.5,21.6c0.8,0,1.3,0.3,1.7,0.7l-0.1-1V19h2v9.6h-1.6l-0.2-0.7h0c-0.5,0.5-1.2,0.9-1.9,0.9
			c-1.7,0-2.8-1.3-2.8-3.5S99,21.6,100.5,21.6z M101,27.1c0.4,0,0.8-0.2,1.2-0.6v-2.7c-0.4-0.3-0.7-0.4-1.1-0.4
			c-0.7,0-1.4,0.6-1.4,1.9C99.6,26.5,100.1,27.1,101,27.1z"/>
		<path fill="#607189" d="M105.8,27.5l3.5-4.1h-3.1v-1.6h5.9v1.1l-3.5,4.1h3.7v1.6h-6.4V27.5z"/>
		<path fill="#607189" d="M113.8,21.8h4.7v6.8h-2v-5.2h-2.7V21.8z M116.1,19.6c0-0.7,0.6-1.3,1.3-1.3c0.8,0,1.3,0.5,1.3,1.3
			c0,0.7-0.6,1.2-1.3,1.2C116.6,20.8,116.1,20.3,116.1,19.6z"/>
		<path fill="#607189" d="M121.4,19h4v7c0,0.8,0.5,1.1,1.1,1.1c0.3,0,0.6-0.1,1.1-0.2l0.4,1.5c-0.7,0.2-1.2,0.4-2,0.4
			c-1.7,0-2.6-1.1-2.6-2.8v-5.3h-2V19z"/>
		<path fill="#607189" d="M133.7,24.2c-0.1-0.6-0.5-1-1.4-1c-0.7,0-1.3,0.2-2.1,0.6l-0.7-1.3c0.9-0.5,2-0.9,3.2-0.9
			c1.9,0,3.1,1,3.1,3.1v3.9h-1.6l-0.1-0.8h-0.1c-0.7,0.5-1.5,0.9-2.4,0.9c-1.4,0-2.2-0.9-2.2-2C129.3,25.2,130.5,24.4,133.7,24.2z
			 M132.1,27.2c0.6,0,1.1-0.3,1.6-0.6v-1.1c-2,0.1-2.5,0.5-2.5,1.1C131.2,27,131.6,27.2,132.1,27.2z"/>
	</g>
</g>
</svg>
