<?xml version="1.0" encoding="utf-8"?>
<!-- Generator: Adobe Illustrator 18.1.1, SVG Export Plug-In . SVG Version: 6.00 Build 0)  -->
<!DOCTYPE svg PUBLIC "-//W3C//DTD SVG 1.1//EN" "http://www.w3.org/Graphics/SVG/1.1/DTD/svg11.dtd">
<svg version="1.1" id="Layer_1" xmlns="http://www.w3.org/2000/svg" xmlns:xlink="http://www.w3.org/1999/xlink" x="0px" y="0px"
	 viewBox="0 0 169.3 167.3" enable-background="new 0 0 169.3 167.3" xml:space="preserve">
<path fill="#A55656" d="M159.9,128.8l-66.7,36.4c-5.3,2.9-11.8,2.9-17.2,0L9.3,128.8C3.6,125.6,0,119.6,0,113V0h169.3v113
	C169.3,119.6,165.7,125.6,159.9,128.8z"/>
<g>
	<g>
		<path fill="#252D36" d="M55.6,26.7h3.9v23.1h2.1l10.7-9.9h5.4L65.3,51.8l12.4,16h-4.8L61.6,53.8h-2.1v14.1h-3.9V26.7z"/>
		<path fill="#252D36" d="M79.8,29.4h14.3c11.8,0,13.7,11.5,13.7,19.4c0,8.7-3.5,19.1-13.7,19.1H79.8V29.4z M94.1,63.8
			c6.9,0,9.8-7,9.8-15.1c0-11.2-3.7-15.5-9.8-15.5H83.7v30.5H94.1z"/>
		<path fill="#252D36" d="M110.7,57.8c0-0.4,0.3-0.9,0.8-0.9h1.6c0.5,0,0.8,0.4,0.8,0.9v2.9c0,3-3,2.5-3,2.5v-1c1,0,1-0.6,1-1v-0.8
			h-0.4c-0.4,0-0.8-0.4-0.8-0.8V57.8z M110.8,44c0-0.5,0.3-0.8,0.8-0.8h1.7c0.6,0,0.8,0.3,0.8,0.8v1.8c0,0.6-0.4,0.7-0.8,0.7h-1.7
			c-0.4,0-0.8-0.3-0.8-0.7V44z"/>
	</g>
	<g>
		<path fill="#444F63" d="M117.1,89.7c9.7,0,11.9-2.6,11.9-8.7c0-5.6-0.7-10.2-0.7-16.4c0-5,1.5-7.9,7.2-8.9v-0.3
			c-5.7-1-7.2-3.9-7.2-8.9c0-5.5,0.7-11.3,0.7-16.4c0-6.1-2.2-8.7-11.9-8.7h-5v-2.6h4.4c10.6,0,15.6,2.4,15.6,10.9
			c0,5.8-0.7,12.1-0.7,17.6c0,3.4,2.1,6.8,12.6,6.8v2.7c-10.5,0-12.6,3.4-12.6,6.8c0,6,0.7,11.3,0.7,17.6c0,8.5-5,10.9-15.6,10.9
			h-4.4v-2.6H117.1z"/>
	</g>
	<g>
		<path fill="#444F63" d="M37.8,63.8c0-3.4-2.1-6.8-12.7-6.8v-2.7c10.6,0,12.7-3.4,12.7-6.8c0-5.5-0.8-11.8-0.8-17.6
			c0-8.5,5.2-10.9,15.7-10.9h4.4v2.6h-5c-9.7,0-11.7,2.6-11.7,8.7c0,5.1,0.6,10.9,0.6,16.4c0,5-1.6,7.9-7.3,8.9v0.3
			c5.6,1,7.3,3.9,7.3,8.9c0,6.1-0.6,10.8-0.6,16.4c0,6.1,2,8.7,11.7,8.7h5v2.6h-4.4C42.2,92.3,37,89.9,37,81.4
			C37,75.1,37.8,69.8,37.8,63.8z"/>
	</g>
	<g>
		<path fill="#444F63" d="M45,74h1.6v4.4h0l2-2.2h1.7l-2,2.2l2.2,3.1h-1.7l-1.4-2.2l-0.8,0.8v1.3H45V74z"/>
		<path fill="#444F63" d="M53.6,76.1c1.4,0,2.7,1,2.7,2.8s-1.3,2.8-2.7,2.8s-2.7-1-2.7-2.8S52.2,76.1,53.6,76.1z M53.6,80.4
			c0.7,0,1.1-0.6,1.1-1.5s-0.4-1.5-1.1-1.5c-0.7,0-1.1,0.6-1.1,1.5S52.9,80.4,53.6,80.4z"/>
		<path fill="#444F63" d="M57.9,76.2h1.3l0.1,1.2h0c0.5-0.9,1.3-1.3,2.2-1.3c0.5,0,0.7,0.1,1,0.2l-0.3,1.3c-0.3-0.1-0.5-0.2-0.9-0.2
			c-0.7,0-1.3,0.3-1.8,1.3v2.8h-1.6V76.2z"/>
		<path fill="#444F63" d="M64.3,82.4c0.6,0,0.9-0.3,1.1-0.7l0.1-0.3l-2.3-5.2h1.6l0.9,2.3c0.2,0.5,0.4,1,0.5,1.6h0
			c0.1-0.5,0.3-1.1,0.5-1.6l0.8-2.3H69l-2.1,5.4c-0.5,1.3-1.2,2-2.5,2c-0.3,0-0.6,0-0.8-0.1l0.3-1.2C64,82.4,64.1,82.4,64.3,82.4z"
			/>
		<path fill="#444F63" d="M78.1,76.1c0.6,0,1,0.2,1.4,0.6l-0.1-0.8V74H81v7.6h-1.3L79.6,81h0c-0.4,0.4-0.9,0.7-1.5,0.7
			c-1.4,0-2.3-1.1-2.3-2.8S76.9,76.1,78.1,76.1z M78.5,80.4c0.4,0,0.7-0.1,0.9-0.5v-2.2c-0.3-0.3-0.6-0.4-0.9-0.4
			c-0.6,0-1.1,0.5-1.1,1.5C77.4,79.9,77.8,80.4,78.5,80.4z"/>
		<path fill="#444F63" d="M84.7,76.1c1.4,0,2.7,1,2.7,2.8s-1.3,2.8-2.7,2.8c-1.4,0-2.7-1-2.7-2.8S83.3,76.1,84.7,76.1z M84.7,80.4
			c0.7,0,1.1-0.6,1.1-1.5s-0.4-1.5-1.1-1.5c-0.7,0-1.1,0.6-1.1,1.5S84,80.4,84.7,80.4z"/>
		<path fill="#444F63" d="M88.5,76.2h1.3l0.1,0.7h0c0.5-0.5,1-0.8,1.8-0.8c1.2,0,1.7,0.8,1.7,2.2v3.3H92v-3.1c0-0.7-0.2-1-0.8-1
			c-0.4,0-0.7,0.2-1.1,0.6v3.6h-1.6V76.2z"/>
		<path fill="#444F63" d="M96.8,76.1c0.6,0,1,0.2,1.4,0.6l-0.1-0.8V74h1.6v7.6h-1.3L98.2,81h0c-0.4,0.4-0.9,0.7-1.5,0.7
			c-1.4,0-2.3-1.1-2.3-2.8S95.6,76.1,96.8,76.1z M97.1,80.4c0.4,0,0.7-0.1,0.9-0.5v-2.2c-0.3-0.3-0.6-0.4-0.9-0.4
			c-0.6,0-1.1,0.5-1.1,1.5C96.1,79.9,96.5,80.4,97.1,80.4z"/>
		<path fill="#444F63" d="M100.9,80.7l2.8-3.3h-2.5v-1.2h4.6v0.8l-2.8,3.3h2.9v1.2h-5.1V80.7z"/>
		<path fill="#444F63" d="M107.3,76.2h3.7v5.3h-1.6v-4.1h-2.1V76.2z M109.1,74.5c0-0.6,0.4-1,1.1-1c0.6,0,1.1,0.4,1.1,1
			s-0.4,1-1.1,1C109.5,75.5,109.1,75.1,109.1,74.5z"/>
		<path fill="#444F63" d="M113.3,74h3.1v5.5c0,0.7,0.4,0.9,0.9,0.9c0.2,0,0.5,0,0.8-0.2l0.4,1.2c-0.6,0.2-0.9,0.3-1.6,0.3
			c-1.3,0-2-0.9-2-2.2v-4.2h-1.6V74z"/>
		<path fill="#444F63" d="M123,78.1c-0.1-0.5-0.4-0.8-1.1-0.8c-0.5,0-1,0.2-1.6,0.5l-0.6-1c0.7-0.4,1.6-0.7,2.5-0.7
			c1.5,0,2.4,0.8,2.4,2.4v3.1h-1.3l-0.1-0.6h0c-0.5,0.4-1.2,0.7-1.9,0.7c-1.1,0-1.8-0.7-1.8-1.6C119.5,78.9,120.5,78.3,123,78.1z
			 M121.8,80.5c0.5,0,0.9-0.2,1.3-0.5v-0.9c-1.6,0.1-2,0.4-2,0.9C121,80.3,121.3,80.5,121.8,80.5z"/>
	</g>
</g>
<g>
	<path fill="#252D36" d="M24.8,115.2c-0.6,1-1,1.9-2,1.9c-0.5,0-0.6,0.1-0.8,0.1c-0.3,0-0.3-0.1-0.3-0.2c0-0.1,0.1-0.2,0.1-0.3
		c0-0.1,1.1-2.4,2.5-5.2c-1.1,0-2.9-0.1-4.5-0.2c-1.5,1.9-2.6,3.6-3.3,4.9c-0.2,0.5-0.4,0.6-0.8,0.6c-0.4,0-1-0.4-1-1
		c0-0.7,1.1-2.5,2.8-4.6c-0.6,0-1.1,0-1.3,0c-0.4,0-0.6,0.1-0.8,0.1c-0.2,0-0.3-0.1-0.3-0.5c0-0.7,0.8-1.3,2.1-1.3
		c0.2,0,0.7,0,1.6-0.1c2.9-3.4,6.7-7.1,9.4-8.4c0.2-0.1,0.3-0.2,0.4-0.1c0.2,0,0.3,0.1,0.5,0.3c0.4-0.7,0.3-0.7,0.5-0.7
		c0.1,0,1.2,0.5,1.2,1c0,0.1,0,0.1,0,0.2C30.3,103.5,25.4,114.1,24.8,115.2z M21.2,109.6c1,0,2.3,0.1,3.9,0.2c1.2-2.5,2.5-5.2,3.3-7
		C25.5,105.1,23.1,107.4,21.2,109.6z"/>
	<path fill="#252D36" d="M35,111.7c-0.2,0.2-0.3,0.3-0.6,0.3c-0.5,0-0.7-0.4-0.7-0.8c0-0.6,0.4-1.2,0.8-1.7l0,0
		c-0.6,0-3.5,3.1-4,3.7c-0.8,0.9-1.6,1.8-2.3,2.8c-0.1,0.2-0.4,0.5-0.7,0.5c-0.2,0-0.9-0.3-1-0.4c-0.1,0-0.1-0.1-0.1-0.2
		c0-0.4,0.4-0.9,0.6-1.3c0.9-1.6,1.9-3.2,2.8-4.8c0.3-0.5,0.6-1.1,1-1.5c0.4-0.5,1.1-0.6,1.6-0.6c0.2,0,0.3,0.2,0.3,0.4
		c0,0.5-1.1,2-1.4,2.5c1-1.1,2.7-2.9,4.3-2.9c0.6,0,1,0.4,1,1C36.7,109.3,35.4,111.2,35,111.7z"/>
	<path fill="#252D36" d="M39.2,106.7c0,0-1.6,0.2-1.9,0.2h-0.1c-0.3,0-0.9-0.1-0.9-0.5c0-0.2,0.3-0.3,0.3-0.5c0.1-0.3,1-0.8,1.4-0.8
		c0.5,0,0.9,0,1.4-0.1c1,0,0,0,1,0c0.5-0.7,0.9-1.4,1.5-2c0.1-0.2,0.2-0.2,0.4-0.2c0.2,0,0.3-0.1,0.5-0.1c0.3,0,0.3,0.1,0.4,0.1
		c0.1,0,0.2,0.2,0.2,0.3c0,0.2-0.9,1.6-1.1,1.8c0.1,0,0.8-0.1,1.1-0.1c0.3,0,0.5,0,0.6,0c0.3,0.1,0.3,0.4,0.6,0.6
		c0.1,0.1,0.2,0.2,0.2,0.3c0,0.4-0.5,0.6-0.9,0.6c-1,0.1-1.8,0.2-2.8,0.3c-0.8,1.2-4,6.6-4.1,7.7c0,0.2,0,0.3,0,0.4
		c0,0.4,0.2,0.5,0.5,0.5c1,0,2.9-2.2,3.2-2.2c0.3,0,0.3,0.8,0.3,1c0,0.4-0.2,0.7-0.5,1c-0.7,0.6-2.1,1.9-3.3,1.9c-0.1,0-0.2,0-0.3,0
		c-1.1-0.2-1.7-0.7-1.7-2.1C35.2,113.1,38.2,108.2,39.2,106.7z"/>
	<path fill="#252D36" d="M45.5,114.5c-0.8,1.5-2.6,2.4-3.8,2.4c-1,0-2-0.9-2-1.9c0-1.1,2.4-4.5,2.4-4.7c0-0.2-0.4-0.5-0.4-0.7
		c0-0.2,1.7-2,2.6-2c0.4,0,0.8,0.5,0.8,0.9c0,0.2-2.3,4.1-2.6,4.7c-0.3,0.4-0.8,1.2-0.8,1.7c0,0.3,0.3,0.4,0.6,0.4
		c1.3,0,2.7-2.2,3.1-2.2c0.3,0,0.3,0.8,0.3,1C45.5,114.2,45.5,114.4,45.5,114.5z M45.5,106.5c-0.4,0-0.6-0.2-0.6-0.6
		c0-0.9,0.9-1.8,1.8-1.8c0.4,0,0.6,0.2,0.6,0.6C47.3,105.4,46.4,106.5,45.5,106.5z"/>
	<path fill="#252D36" d="M53.5,108.3c0,0.3-0.1,0.7-0.3,0.9c-0.3,0.4-1.1,0.8-1.7,0.8c-0.4,0-0.3-0.2-0.5-0.2
		c-0.1,0-0.1-0.1-0.1-0.2c0-0.2,0.2-0.2,0.3-0.5c-2,0.1-4.1,1.8-4.1,2.2c0,0.4,1.8,0.3,3.7,1.1c0.7,0.3,1,1,1,1.4
		c0,1.9-3.4,3.2-5.2,3.2c-1.6,0-2.1-0.7-2.1-1.3c0-0.8,0.4-1.5,0.9-1.5c0.3,0,0.5,0,0.5,0.2c0,0.1,0,0.1,0,0.2
		c0,0.4,0.4,0.7,0.6,0.7c1.8,0,3.3-0.7,3.3-1.2c0-0.4-1.5-0.6-2.9-1c-0.7-0.2-1.5-0.5-1.5-1.5c0-2.6,4.9-4.2,6.5-4.2
		C53.5,107.3,53.5,108,53.5,108.3L53.5,108.3z"/>
	<path fill="#252D36" d="M56.7,106.7c0,0-1.6,0.2-1.9,0.2h-0.1c-0.3,0-0.9-0.1-0.9-0.5c0-0.2,0.3-0.3,0.3-0.5c0.1-0.3,1-0.8,1.4-0.8
		c0.5,0,0.9,0,1.4-0.1c1,0,0,0,1,0c0.5-0.7,0.9-1.4,1.5-2c0.1-0.2,0.2-0.2,0.4-0.2c0.2,0,0.3-0.1,0.5-0.1c0.3,0,0.3,0.1,0.4,0.1
		c0.1,0,0.2,0.2,0.2,0.3c0,0.2-0.9,1.6-1.1,1.8c0.1,0,0.8-0.1,1.1-0.1c0.3,0,0.5,0,0.6,0c0.3,0.1,0.3,0.4,0.6,0.6
		c0.1,0.1,0.2,0.2,0.2,0.3c0,0.4-0.5,0.6-0.9,0.6c-1,0.1-1.8,0.2-2.8,0.3c-0.8,1.2-4,6.6-4.1,7.7c0,0.2,0,0.3,0,0.4
		c0,0.4,0.2,0.5,0.5,0.5c1,0,2.9-2.2,3.2-2.2c0.3,0,0.3,0.8,0.3,1c0,0.4-0.2,0.7-0.5,1c-0.7,0.6-2.1,1.9-3.3,1.9c-0.1,0-0.2,0-0.3,0
		c-1.1-0.2-1.7-0.7-1.7-2.1C52.8,113.1,55.8,108.2,56.7,106.7z"/>
	<path fill="#444F63" d="M72.3,103.6l0.2,0c0.5,0,1,0.4,1,0.9c0,1.4-1.7,1.9-2.6,1.9h-0.1l-0.4,0.8c0,0,0.1,0,0.1,0
		c0.1,0,0.2,0,0.3,0.1c0.2,0.1,0.5,0.7,0.5,0.9c0,0.2-0.3,0.4-0.5,0.5c-0.4,0.3-1,0.4-1.2,0.4l-0.2,0.1c-0.4,0.8-0.8,1.6-1.3,2.6
		c1.6-0.6,3.4-1.7,3.7-2.1c0.1-0.1,0.2-0.4,0.4-0.4c0.1,0,0.6,0.3,0.6,0.9c0,1.4-2.8,3.3-5.6,3.6c-0.5,1-1,2.3-1.1,2.5
		c-0.2,0.3-0.6,0.3-0.7,0.3c-0.1,0-0.1,0-0.2,0c-0.3,0-0.5-0.1-0.6-0.3c0-0.1-0.1-0.2-0.1-0.3c0,0,0-0.1,0-0.1
		c0.2-0.6,0.6-1.3,1-2.2c-1.1-0.2-1.7-1-1.7-1.9c0-1.7,1.6-2.7,2.3-3.1c-0.6-0.4-0.9-0.9-0.9-1.4c0-1.8,2.8-3.3,5.3-3.7
		c0.8-1.5,1.3-2.5,1.4-2.6c0.3-0.5,1.4-0.7,1.6-0.7c0.1,0,0.3,0.1,0.3,0.3c0,0,0,0.1,0,0.1C73.8,100.9,73.4,101.7,72.3,103.6z
		 M66,111.6c0,0.4,0.2,0.5,0.4,0.5c0.4-0.7,0.7-1.4,1.1-2.2C66.3,110.5,66,111.2,66,111.6z M67.1,107.4c0,0.1,0.2,0.2,0.4,0.2
		c0.1,0,0.5-0.1,1.2-0.1c0.3-0.6,0.6-1.2,0.9-1.8C68.4,106.3,67.1,107.2,67.1,107.4z"/>
	<path fill="#252D36" d="M81.9,116.5c-2.2,0-1.9-0.4-2.3-0.7c-0.2-0.1-0.2-0.4-0.2-0.6c0-0.3,0.1-0.6,0.1-0.7
		c0.5-1.8,6-9.6,7.2-11.2c0.1-0.1,0.3-0.2,1.2-0.2c0.6,0,0.8,0.1,0.8,0.3c0,0.1-0.1,0.3-0.2,0.5c-1.2,1.7-7,10.6-7,10.7
		c0,0.1,0.2,0.1,0.6,0.1c5.4,0,11.4-5.2,11.4-8.3c0-2-1.9-3.8-5.3-3.8c-2.5,0-4.6,1.1-5.3,1.6c-0.3,0.2-0.4,0.4-0.4,0.5
		c0,0.1,0.1,0.1,0.1,0.1c0.2,0,0.4-0.1,0.5-0.1c0.1,0,0.1,0,0.1,0c0,0-0.1,0.1-0.2,0.2c-0.3,0.2-0.3,0.3-0.5,0.4
		c-0.7,0.4-1,0.5-1.2,0.5c-0.1,0-0.2,0-0.2,0h0c-0.3,0-0.8-0.2-0.8-0.9c0-1.7,3.3-4,8-4c4.7,0,7.4,2.1,7.4,4.9
		C95.6,111.5,87.8,116.5,81.9,116.5z"/>
	<path fill="#252D36" d="M99.7,110.2c-0.3,0-0.4-0.2-0.4-0.5c0-0.1,0-0.2,0-0.3c-0.3,0.1-0.6,0.3-0.9,0.4c-0.4,0.2-1.8,1.2-1.8,1.6
		c0,0.1,0.2,0.1,0.2,0.1c0.6,0,1.1-0.4,1.6-0.4c0.1,0,0.2,0,0.2,0c0.2,0.1,0.5,0.5,0.5,0.7c0,0.2-0.2,0.4-0.4,0.5
		c-0.3,0.3-0.7,0.3-1,0.5c-0.4,0.2-2.3,1.3-2.3,1.8c0,0.8,0.9,0.8,1.4,0.8c1.6,0,3.1-1.5,4.1-2.2c0.1,0,0.2-0.1,0.2-0.1
		c0.3,0,0.3,0.7,0.3,0.9c0,0.2,0,0.4-0.1,0.6c-0.1,0.2-0.3,0.4-0.4,0.5c-1,0.8-2.6,1.9-4.4,1.9c-1.3,0-3-0.4-3-2
		c0-1.2,1-1.9,2.1-2.3c-0.6-0.3-0.6-0.7-0.6-1.3c0-2.1,3.6-3.7,5.4-3.7c0.4,0,1.1,0.2,1.1,0.7C101.6,109.4,100.6,110.2,99.7,110.2z"
		/>
	<path fill="#252D36" d="M107.8,113.2c-1.8,2-4,3.7-5.1,3.7c-0.5,0-1.2-0.4-1.2-1.3c0-1.2,1.3-3.8,2-4.9c-0.3,0.2-0.6,0.4-0.7,0.4
		c-0.1,0-0.5-0.5-0.5-0.8c0-0.1,0-0.1,0.1-0.2c0.2-0.2,2-2.4,3-2.4c0.5,0,0.9,0.4,0.9,0.7c0,0.8-2.9,5.6-2.9,6.5c0,0,0,0.1,0.1,0.1
		c0.4,0,2.5-2,3.4-3.1c1.1-1.4,2-2.9,2-3.4c0-0.4-0.2-0.4-0.2-0.8c0-0.3,0.4-0.9,1.1-0.9c0.6,0,1,0.3,1,1.2
		C110.7,109.2,109.4,111.3,107.8,113.2z"/>
	<path fill="#252D36" d="M115.1,110.2c-0.3,0-0.4-0.2-0.4-0.5c0-0.1,0-0.2,0-0.3c-0.3,0.1-0.6,0.3-0.9,0.4c-0.4,0.2-1.8,1.2-1.8,1.6
		c0,0.1,0.2,0.1,0.2,0.1c0.6,0,1.1-0.4,1.6-0.4c0.1,0,0.2,0,0.2,0c0.2,0.1,0.5,0.5,0.5,0.7c0,0.2-0.2,0.4-0.4,0.5
		c-0.3,0.3-0.7,0.3-1,0.5c-0.4,0.2-2.3,1.3-2.3,1.8c0,0.8,0.9,0.8,1.4,0.8c1.6,0,3.1-1.5,4.1-2.2c0.1,0,0.2-0.1,0.2-0.1
		c0.3,0,0.3,0.7,0.3,0.9c0,0.2,0,0.4-0.1,0.6c-0.1,0.2-0.3,0.4-0.4,0.5c-1,0.8-2.6,1.9-4.4,1.9c-1.3,0-3-0.4-3-2
		c0-1.2,1-1.9,2.1-2.3c-0.6-0.3-0.6-0.7-0.6-1.3c0-2.1,3.6-3.7,5.4-3.7c0.4,0,1.1,0.2,1.1,0.7C117,109.4,116,110.2,115.1,110.2z"/>
	<path fill="#252D36" d="M118.6,113.2c0,0.4-0.2,0.7-0.2,1c0,0.7,0.5,1.1,1.2,1.1c1.3,0,2.8-2.2,3.3-2.2c0.3,0,0.3,0.6,0.3,0.8v0.2
		c0,0.5-0.2,0.7-0.5,1c-0.9,1-2.5,1.8-3.8,1.8c-1.4,0-2.1-0.9-2.1-2.3c0-3,2-7.4,3.7-9.8c1.3-1.9,3.4-4.5,4.9-4.5
		c0.7,0,1.3,0.4,1.3,1.1C126.6,103.9,120.4,111.1,118.6,113.2z M124.7,101.9c-0.6,0-3.6,4.4-4.1,5.2c-0.6,1.1-1.2,2.5-1.6,3.7
		c1-1.2,5.8-7.5,5.8-8.7C124.8,102,124.8,101.9,124.7,101.9z"/>
	<path fill="#252D36" d="M123.4,116.8c-1,0-1.8-0.8-1.8-1.8c0-3.9,4.3-7.2,6.3-7.2c0.6,0,1,0.3,1,0.5v0.1c0.2,0,0.3,0,0.4,0
		c0.5,0,1.1,0.3,1.1,1.1C130.4,111.6,126.5,116.8,123.4,116.8z M128.2,109.7c-0.2,0-0.4-0.1-0.4-0.6c-1,0.3-2.2,1.2-3.2,2.5
		c-0.9,1.2-1.4,2.3-1.4,3c0,0.4,0.2,0.6,0.4,0.6c0.5,0,1.8-0.6,3.1-2.3c1.2-1.5,1.7-2.6,1.7-3C128.4,109.8,128.4,109.7,128.2,109.7
		L128.2,109.7z"/>
	<path fill="#252D36" d="M131.9,116.9c-0.7,0-1.2-0.4-1.2-1.2c-2.1,3.3-4.5,7.1-4.6,7.3c-0.1,0.1-0.2,0.2-0.3,0.2
		c-0.1,0-0.7-0.3-0.8-0.9c0-0.4,0.1-0.7,0.3-1c0.4-0.6,9.6-15.7,10.1-16.1c0.2-0.1,0.3-0.1,0.4-0.1c0.1,0,0.1,0,0.2,0
		c0.1,0,0.1,0,0.2,0c0.1,0,0.2,0.1,0.3,0.3c0,0.1,0.1,0.2,0.1,0.3c0,0.1-0.1,0.2-0.2,0.4l-3.1,4.7c0,0,2.7-2.6,4.4-2.6
		c0.8,0,1.2,0.5,1.2,1.2C138.9,111.1,135.4,116.9,131.9,116.9z M136.8,109.7c-0.8,0-4.1,3.2-5.5,5.1c0.2,0.2,0.5,0.3,0.8,0.3
		c1.8,0,4.9-3.6,4.9-5.2C137,109.8,136.9,109.7,136.8,109.7z"/>
	<path fill="#252D36" d="M144.1,110.2c-0.3,0-0.4-0.2-0.4-0.5c0-0.1,0-0.2,0-0.3c-0.3,0.1-0.6,0.3-0.9,0.4c-0.4,0.2-1.8,1.2-1.8,1.6
		c0,0.1,0.2,0.1,0.2,0.1c0.6,0,1.1-0.4,1.6-0.4c0.1,0,0.2,0,0.2,0c0.2,0.1,0.5,0.5,0.5,0.7c0,0.2-0.2,0.4-0.4,0.5
		c-0.3,0.3-0.7,0.3-1,0.5c-0.4,0.2-2.3,1.3-2.3,1.8c0,0.8,0.9,0.8,1.4,0.8c1.6,0,3.1-1.5,4.1-2.2c0.1,0,0.2-0.1,0.2-0.1
		c0.3,0,0.3,0.7,0.3,0.9c0,0.2,0,0.4-0.1,0.6c-0.1,0.2-0.3,0.4-0.4,0.5c-1,0.8-2.6,1.9-4.4,1.9c-1.3,0-3-0.4-3-2
		c0-1.2,1-1.9,2.1-2.3c-0.6-0.3-0.6-0.7-0.6-1.3c0-2.1,3.6-3.7,5.4-3.7c0.4,0,1.1,0.2,1.1,0.7C146,109.4,145.1,110.2,144.1,110.2z"
		/>
	<path fill="#252D36" d="M152.8,111.7c-0.2,0.2-0.3,0.3-0.6,0.3c-0.5,0-0.7-0.4-0.7-0.8c0-0.6,0.4-1.2,0.8-1.7l0,0
		c-0.6,0-3.5,3.1-4,3.7c-0.8,0.9-1.6,1.8-2.3,2.8c-0.1,0.2-0.4,0.5-0.7,0.5c-0.2,0-0.9-0.3-1-0.4c-0.1,0-0.1-0.1-0.1-0.2
		c0-0.4,0.4-0.9,0.6-1.3c0.9-1.6,1.9-3.2,2.8-4.8c0.3-0.5,0.6-1.1,1-1.5c0.4-0.5,1.1-0.6,1.6-0.6c0.2,0,0.3,0.2,0.3,0.4
		c0,0.5-1.1,2-1.4,2.5c1-1.1,2.7-2.9,4.3-2.9c0.6,0,1,0.4,1,1C154.5,109.3,153.2,111.2,152.8,111.7z"/>
</g>
</svg>
