<?xml version="1.0" encoding="utf-8"?>
<!-- Generator: Adobe Illustrator 18.1.1, SVG Export Plug-In . SVG Version: 6.00 Build 0)  -->
<!DOCTYPE svg PUBLIC "-//W3C//DTD SVG 1.1//EN" "http://www.w3.org/Graphics/SVG/1.1/DTD/svg11.dtd">
<svg version="1.1" id="Слой_1" xmlns="http://www.w3.org/2000/svg" xmlns:xlink="http://www.w3.org/1999/xlink" x="0px" y="0px"
	 viewBox="171 -231 512 512" enable-background="new 171 -231 512 512" xml:space="preserve">
<path fill="#252D36" d="M211.7,244.8h9.6V-9.5L343-52.1v-70.3L560.4-225v4.2l59,35.2v428.6h23v30.2H530.2v-450.5l-157,74v40.6
	l65.5-23v1.9l58.7,35V242h23.3v30.2H408.5V-43.2l-157,55V275h-39.8V244.8L211.7,244.8z"/>
<g>
	<path fill="#A55656" d="M269.1,271.1c17,0,94.2,0,116.3,0c0-17.7,0-35.4,0-53.2c-22,1.5-99.3,6.5-116.3,7.6
		C269.1,240.8,269.1,256,269.1,271.1L269.1,271.1z"/>
	<path fill="#A55656" d="M269.1,74.4c17-4.8,94.2-26.7,116.3-32.9c0-17.7,0-35.5,0-53.2c-22,7.6-99.3,34.6-116.3,40.5
		C269.1,44,269.1,59.2,269.1,74.4L269.1,74.4z"/>
	<path fill="#A55656" d="M269.1,139.4c17-3.2,94.2-17.8,116.3-22c0-17.7,0-35.5,0-53.2c-22,5.6-99.3,25.3-116.3,29.6
		C269.1,109,269.1,124.2,269.1,139.4L269.1,139.4z"/>
	<path fill="#A55656" d="M269.1,204.8c17-1.6,94.2-9,116.3-11.1c0-17.7,0-35.4,0-53.2c-22,3.6-99.3,16-116.3,18.7
		C269.1,174.4,269.1,189.6,269.1,204.8z"/>
</g>
</svg>
