<?xml version="1.0" encoding="utf-8"?>
<!-- Generator: Adobe Illustrator 18.1.1, SVG Export Plug-In . SVG Version: 6.00 Build 0)  -->
<!DOCTYPE svg PUBLIC "-//W3C//DTD SVG 1.1//EN" "http://www.w3.org/Graphics/SVG/1.1/DTD/svg11.dtd">
<svg version="1.1"
	 id="svg4156" xmlns:svg="http://www.w3.org/2000/svg" xmlns:rdf="http://www.w3.org/1999/02/22-rdf-syntax-ns#" xmlns:sodipodi="http://sodipodi.sourceforge.net/DTD/sodipodi-0.dtd" xmlns:cc="http://creativecommons.org/ns#" xmlns:inkscape="http://www.inkscape.org/namespaces/inkscape" xmlns:dc="http://purl.org/dc/elements/1.1/"
	 xmlns="http://www.w3.org/2000/svg" xmlns:xlink="http://www.w3.org/1999/xlink" x="0px" y="0px" viewBox="106 -155 642 360"
	 enable-background="new 106 -155 642 360" xml:space="preserve">
<g id="path11251">
	<path fill="#252D36" d="M465.8-132.8c24.2,6,47,17.6,66.1,33.8c20.6,17.5,36.6,40,46.4,65c1.9,5,6.8,8.3,12.1,8.3l119.1,0
		c1.6,0,2.9,1,3.6,1.7l0.2,0.2c0.1,0.1,0.1,0.1,0.2,0.2c0.2,0.3,0.5,0.6,0.8,1c1.8,2.5,2.8,5.8,2.8,9.6l0,76c0,3.8-1,7.1-2.7,9.6
		c-1.1,1.5-2.9,3-4.9,3H590.5c-5.4,0-10.2,3.3-12.1,8.3c-9.8,25.1-25.8,47.6-46.4,65c-19.1,16.3-41.9,27.9-66.2,33.8l0-47.3
		c22-7.7,41-21.7,55.1-40.5C536,74.6,544.1,50.5,544.1,25c0-25.4-8-49.6-23.2-70c-14.1-18.9-33.1-32.8-55.1-40.5L465.8-132.8
		 M460.5-147.1c-3.6,0-6.9,2.5-7.6,6.2c-0.1,0.5-0.2,1-0.1,1.5l0,57.6c0,3.4,2.2,6.4,5.4,7.4c42.2,13.3,72.8,52.6,72.8,99.3
		c0,46.7-30.6,86-72.8,99.3c-3.2,1-5.4,4-5.4,7.4l0,57.6c0,4.3,3.5,7.8,7.7,7.8c0,0,0,0,0,0c0.5,0,1-0.1,1.6-0.2
		c58.9-12,107-53.4,128.4-108.3h119.1c6.5,0,12-3.7,15.4-8.4c3.4-4.8,5.2-10.7,5.2-17.2l0-76c0-6.5-1.8-12.4-5.2-17.2
		c-0.6-0.9-1.3-1.8-2.1-2.5l0,0c-0.3-0.3-0.5-0.5-0.8-0.8c-3.3-3-7.6-5.1-12.5-5.1l-119.1,0C569-93.5,521-135,462.1-146.9
		C461.6-147,461-147.1,460.5-147.1L460.5-147.1z"/>
</g>
<path id="path11274" fill="#252D36" d="M398.8-144.9c-1.8-1.8-4.4-2.6-6.9-2.1c-58.9,12-107,53.4-128.4,108.3H144.5
	c-6.5,0-12,3.7-15.4,8.5c-3.4,4.8-5.2,10.7-5.2,17.2l0,76c0,6.5,1.8,12.4,5.2,17.2c3.4,4.8,9,8.4,15.4,8.4l119.1,0
	c21.4,54.9,69.5,96.3,128.4,108.3c4.2,0.9,8.3-1.9,9.1-6.1c0.1-0.5,0.2-1,0.2-1.5v-57.7c0-3.4-2.2-6.4-5.4-7.4
	C353.6,111,322.9,71.7,322.9,25c0-46.7,30.6-86,72.8-99.3c3.2-1,5.4-4,5.4-7.4l0-57.6C401.2-141.4,400.3-143.4,398.8-144.9z"/>
<path id="path11240" fill="#A55656" d="M427,80.9c-30.9,0-55.9-25-55.9-55.9c0-30.9,25-55.9,55.9-55.9s55.9,25,55.9,55.9
	C482.9,55.9,457.9,80.9,427,80.9z"/>
</svg>
