<?xml version="1.0" encoding="utf-8"?>
<!-- Generator: Adobe Illustrator 18.1.1, SVG Export Plug-In . SVG Version: 6.00 Build 0)  -->
<!DOCTYPE svg PUBLIC "-//W3C//DTD SVG 1.1//EN" "http://www.w3.org/Graphics/SVG/1.1/DTD/svg11.dtd">
<svg version="1.1"
	 id="svg5950" xmlns:svg="http://www.w3.org/2000/svg" xmlns:rdf="http://www.w3.org/1999/02/22-rdf-syntax-ns#" xmlns:sodipodi="http://sodipodi.sourceforge.net/DTD/sodipodi-0.dtd" xmlns:cc="http://creativecommons.org/ns#" xmlns:inkscape="http://www.inkscape.org/namespaces/inkscape" xmlns:dc="http://purl.org/dc/elements/1.1/"
	 xmlns="http://www.w3.org/2000/svg" xmlns:xlink="http://www.w3.org/1999/xlink" x="0px" y="0px" viewBox="-29 -18 90 86"
	 enable-background="new -29 -18 90 86" xml:space="preserve">
<path id="path3872" fill="#252D36" d="M-29-18v86h90L-29-18z M-14.5,26.6l30.2,28.7h-30.2V26.6z"/>
<g>
	<defs>
		<path id="path3872_1_" d="M-29-18v86h90L-29-18z M-14.5,26.6l30.2,28.7h-30.2V26.6z"/>
	</defs>
	<clipPath id="path3872_2_">
		<use xlink:href="#path3872_1_"  overflow="visible"/>
	</clipPath>
	<path clip-path="url(#path3872_2_)" fill="#A55656" d="M22.5,55.6L22.5,55.6c-0.9-0.8-0.8-2.3,0.1-3.3l9.9-10.4
		c0.9-1,2.4-1.1,3.3-0.3l0,0c0.9,0.8,0.8,2.3-0.1,3.3l-9.9,10.4C24.9,56.3,23.4,56.5,22.5,55.6z M10.4,44.1L10.4,44.1
		c-0.9-0.8-0.8-2.3,0.1-3.3l9.9-10.4c0.9-1,2.4-1.1,3.3-0.3l0,0c0.9,0.8,0.8,2.3-0.1,3.3l-9.9,10.4C12.7,44.8,11.2,44.9,10.4,44.1z
		 M-1.6,32.2L-1.6,32.2c-0.9-0.8-0.8-2.3,0.1-3.3l9.9-10.4c0.9-1,2.4-1.1,3.3-0.3l0,0c0.9,0.8,0.8,2.3-0.1,3.3L1.7,31.9
		C0.8,32.9-0.7,33-1.6,32.2z M-13.8,20.6L-13.8,20.6c-0.9-0.8-0.8-2.3,0.1-3.3l9.9-10.4c0.9-1,2.4-1.1,3.3-0.3l0,0
		C0.4,7.5,0.4,9-0.6,10l-9.9,10.4C-11.4,21.3-12.9,21.5-13.8,20.6z M34.1,56.6l-1-0.9c-0.6-0.6-0.6-1.5-0.1-2.2l6.1-6.4
		c0.6-0.6,1.5-0.6,2.2-0.1l1,0.9c0.6,0.6,0.6,1.5,0.1,2.2l-6.1,6.4C35.7,57.2,34.7,57.2,34.1,56.6z M21.7,44.3L21.7,44.3
		c-0.9-0.8-1.1-2-0.5-2.6l6.1-6.4c0.6-0.6,1.8-0.4,2.7,0.4l0,0c0.9,0.8,1.1,2,0.5,2.6l-6.1,6.4C23.7,45.3,22.6,45.2,21.7,44.3z
		 M9.5,32.7L9.5,32.7c-0.9-0.8-1.1-2-0.5-2.6l6.1-6.4c0.6-0.6,1.8-0.4,2.7,0.4l0,0c0.9,0.8,1.1,2,0.5,2.6l-6.1,6.4
		C11.5,33.8,10.4,33.6,9.5,32.7z M-2.6,21L-2.6,21c-0.9-0.8-1.1-2-0.5-2.6L3,12c0.6-0.6,1.8-0.4,2.7,0.4l0,0c0.9,0.8,1.1,2,0.5,2.6
		l-6.1,6.4C-0.5,22-1.7,21.8-2.6,21z M-14.7,9.4L-14.7,9.4c-0.9-0.8-1.1-2-0.5-2.6l6.1-6.4C-8.7-0.2-7.5,0-6.6,0.8l0,0
		c0.9,0.8,1.1,2,0.5,2.6l-6.1,6.4C-12.7,10.4-13.9,10.2-14.7,9.4z"/>
</g>
</svg>
