<?xml version="1.0" encoding="utf-8"?>
<!-- Generator: Adobe Illustrator 18.1.1, SVG Export Plug-In . SVG Version: 6.00 Build 0)  -->
<!DOCTYPE svg PUBLIC "-//W3C//DTD SVG 1.1//EN" "http://www.w3.org/Graphics/SVG/1.1/DTD/svg11.dtd">
<svg version="1.1"
	 id="svg2" xmlns:svg="http://www.w3.org/2000/svg" xmlns:rdf="http://www.w3.org/1999/02/22-rdf-syntax-ns#" xmlns:sodipodi="http://sodipodi.sourceforge.net/DTD/sodipodi-0.dtd" xmlns:cc="http://creativecommons.org/ns#" xmlns:inkscape="http://www.inkscape.org/namespaces/inkscape" xmlns:dc="http://purl.org/dc/elements/1.1/"
	 xmlns="http://www.w3.org/2000/svg" xmlns:xlink="http://www.w3.org/1999/xlink" x="0px" y="0px" viewBox="-76 18 16 16"
	 enable-background="new -76 18 16 16" xml:space="preserve">
<script  id="script3301" xlink:href=""></script>
<script  id="script3299" xlink:href=""></script>
<path id="path6580" fill="#252D36" d="M-75.2,32.9c-0.5-0.7-0.8-1.5-0.8-2.4c0-0.3,0.2-0.5,0.5-0.5h1.5v-9.3c0-1.5,1.2-2.7,2.7-2.7
	h8.5c0.9,0,1.6,0.5,2.1,1.2c0.4,0.7,0.6,1.5,0.6,2.3c0,0.3-0.2,0.5-0.5,0.5H-62v9.3c0,1.5-1.2,2.7-2.7,2.7h-8.1
	C-73.9,34-74.7,33.6-75.2,32.9z M-63,31.3V20.7c0.2-1,0.7-1.7,1-1.7l-9.3,0c-1,0-1.7,0.8-1.7,1.7V30h5.6c0.3,0,0.5,0.2,0.5,0.5
	c0,0.7,0.2,1.3,0.6,1.7c0.4,0.4,0.9,0.7,1.6,0.8h0C-63.8,33-63,32.2-63,31.3z"/>
<path id="path6582" fill="#A55656" d="M-69.8,27.9l-2-2c-0.2-0.2-0.2-0.5,0-0.7l2-2c0.2-0.2,0.5-0.2,0.7,0c0.2,0.2,0.2,0.5,0,0.7
	l-1.7,1.6l1.7,1.7c0.2,0.2,0.2,0.5,0,0.7C-69.3,28.1-69.6,28.1-69.8,27.9z"/>
<path id="path6584" fill="#A55656" d="M-66.9,27.9c-0.2-0.2-0.2-0.5,0-0.7l1.7-1.7l-1.7-1.7c-0.2-0.2-0.2-0.5,0-0.7
	c0.2-0.2,0.5-0.2,0.7,0l2,2c0.2,0.2,0.2,0.5,0,0.7l-2,2C-66.3,28.1-66.7,28.1-66.9,27.9z"/>
</svg>
