<?xml version="1.0" encoding="utf-8"?>
<!-- Generator: Adobe Illustrator 18.1.1, SVG Export Plug-In . SVG Version: 6.00 Build 0)  -->
<!DOCTYPE svg PUBLIC "-//W3C//DTD SVG 1.1//EN" "http://www.w3.org/Graphics/SVG/1.1/DTD/svg11.dtd">
<svg version="1.1" id="Layer_1" xmlns="http://www.w3.org/2000/svg" xmlns:xlink="http://www.w3.org/1999/xlink" x="0px" y="0px"
	 viewBox="171 -231 512 512" enable-background="new 171 -231 512 512" xml:space="preserve">
<g>
	<path fill="#252D36" d="M608.3-80.7c16.3-1.9,39.6-11.2,69.6-40.1l-47-54.9c0,0-41.6,26.4-50,64.6L455-3.4l26.7,31.1L608.3-80.7z"
		/>
	<path fill="#A55656" d="M488.9,54.6l-57.1-66.6c-56.6-23.8-46.7,33.9-46.7,33.9l-22.9,19.6c-32.5,0.3-43.1,11.9-43.1,11.9
		s-113.3,97.8-133,113.8c-19.8,16.1-4.3,43.2-4.3,43.2s35,40.8,51.1,59.7c16.1,18.8,44.3,3.4,44.3,3.4s119.1-101.9,133-113.8
		c13.9-11.9,16.3-43.2,16.3-43.2l22.9-19.6C514.2,110.3,488.9,54.6,488.9,54.6z M324.8,205.4c-2,1.7-4.9,1.5-6.6-0.5L258.1,135
		c-1.7-2-1.5-4.9,0.5-6.6c2-1.7,4.9-1.5,6.6,0.5l60.1,69.9C326.9,200.8,326.7,203.7,324.8,205.4z M354.6,181.1
		c-1.9,1.7-4.9,1.5-6.6-0.4l-60.8-69.3c-1.7-1.9-1.5-4.9,0.4-6.6c1.9-1.7,4.9-1.5,6.6,0.4l60.8,69.3
		C356.7,176.5,356.6,179.4,354.6,181.1z"/>
	<path fill="#252D36" d="M591.7,154.6l-58.3-68.3L465.7,142l59.3,69.5l36,57.2l20.9,7.5l64.1-55.1l-4-22.3L591.7,154.6z
		 M498.8,163.5l47.6-40.8l3.5,4.1l-47.6,40.8L498.8,163.5z M516.1,185.7l-3.5-4.1l47.6-40.8l3.5,4.1L516.1,185.7z M610.1,216.1
		c-1.1,13.9-13.3,24.3-27.1,23.2c-13.9-1.1-24.3-13.3-23.2-27.2c1.1-13.9,13.2-24.3,27.2-23.2C600.9,190.1,611.2,202.2,610.1,216.1z
		"/>
	<path fill="#252D36" d="M294.3-13.9c10.3,0.8,21.6-1.6,33-6.2l16.8,19.7l67.6-55.8L394-77c6.6-10.7,10.9-21.7,11.7-32.1
		c4.5-57.1-45.7-116.6-102.8-120.4c-0.2,0-7.2,6-11,9.3c42.1,49.3,38.9,41.6,36.7,69.6c-1.8,22.8-41,55.8-63.3,54.1
		c-28.8-2.3-20,3.2-63-47.2c-3.9,3.3-10.8,9.2-10.9,9.4C187.8-77.2,237.3-18.4,294.3-13.9z"/>
</g>
</svg>
